<svg width="110" height="110" viewBox="0 0 110 110" fill="none" xmlns="http://www.w3.org/2000/svg">
<g clip-path="url(#clip0_18_233)">
<path d="M110 55.3384C110 24.7721 85.3738 -0.00537109 55.0001 -0.00537109C24.6126 0.00150391 -0.0136719 24.7721 -0.0136719 55.3453C-0.0136719 82.9621 20.1026 105.856 46.3926 110.008V71.3365H32.4363V55.3453H46.4063V43.1421C46.4063 29.2753 54.622 21.6165 67.1826 21.6165C73.2051 21.6165 79.4957 22.6959 79.4957 22.6959V36.3084H72.5588C65.7319 36.3084 63.6007 40.5778 63.6007 44.9571V55.3384H78.8494L76.4157 71.3296H63.5938V110.002C89.8838 105.849 110 82.9553 110 55.3384Z" fill="white"/>
</g>
<defs>
<clipPath id="clip0_18_233">
<rect width="110" height="110" fill="white"/>
</clipPath>
</defs>
</svg>
