<svg width="110" height="110" viewBox="0 0 110 110" fill="none" xmlns="http://www.w3.org/2000/svg">
<g clip-path="url(#clip0_18_212)">
<path d="M110 55C110 69.5869 104.205 83.5764 93.8909 93.8909C83.5764 104.205 69.5869 110 55 110C40.4131 110 26.4236 104.205 16.1091 93.8909C5.79463 83.5764 0 69.5869 0 55C0 40.4131 5.79463 26.4236 16.1091 16.1091C26.4236 5.79463 40.4131 0 55 0C69.5869 0 83.5764 5.79463 93.8909 16.1091C104.205 26.4236 110 40.4131 110 55ZM56.9731 40.6038C51.6198 42.8312 40.9269 47.4375 24.8944 54.4225C22.2956 55.4538 20.9321 56.4667 20.8038 57.4613C20.5975 59.1319 22.6944 59.7919 25.5475 60.6925L26.7506 61.0706C29.5556 61.985 33.3369 63.0506 35.2962 63.0919C37.0837 63.1377 39.0729 62.4044 41.2637 60.8919C56.2467 50.781 63.9788 45.6706 64.46 45.5606C64.8037 45.4781 65.285 45.3819 65.6012 45.6706C65.9175 45.9594 65.89 46.4956 65.8556 46.64C65.6494 47.5269 57.42 55.1719 53.1644 59.1319C51.8375 60.3694 50.8956 61.2425 50.7031 61.4419C50.2794 61.8752 49.8485 62.3015 49.4106 62.7206C46.7981 65.2369 44.8456 67.1206 49.5138 70.2006C51.7619 71.6856 53.5631 72.9025 55.3575 74.1262C57.31 75.46 59.2625 76.7869 61.7925 78.4506C62.4342 78.8723 63.0529 79.3008 63.6488 79.7362C65.9244 81.3587 67.98 82.8163 70.5031 82.5825C71.9744 82.445 73.4938 81.07 74.2637 76.945C76.0856 67.2031 79.6675 46.1037 80.4925 37.4069C80.5443 36.6839 80.5144 35.9575 80.4031 35.2412C80.3365 34.6638 80.057 34.1319 79.6194 33.7494C78.993 33.3192 78.2478 33.0957 77.4881 33.11C75.4256 33.1444 72.2425 34.2513 56.9731 40.6038Z" fill="white"/>
</g>
<defs>
<clipPath id="clip0_18_212">
<rect width="110" height="110" fill="white"/>
</clipPath>
</defs>
</svg>
