<svg width="110" height="110" viewBox="0 0 110 110" fill="none" xmlns="http://www.w3.org/2000/svg">
<g clip-path="url(#clip0_18_209)">
<path d="M93.1218 19.9857C85.9898 16.7103 78.4631 14.3739 70.7299 13.035C70.6599 13.0233 70.5879 13.0334 70.5239 13.0642C70.4599 13.095 70.407 13.1448 70.3724 13.2069C69.4031 14.9257 68.3306 17.1738 67.5812 18.9338C59.2459 17.6699 50.7677 17.6699 42.4324 18.9338C41.6 16.9716 40.6543 15.0594 39.5999 13.2069C39.5654 13.1448 39.5125 13.095 39.4485 13.0642C39.3845 13.0334 39.3125 13.0233 39.2424 13.035C31.5081 14.3688 23.9799 16.7063 16.8506 19.9857C16.7893 20.0084 16.7381 20.0523 16.7062 20.1094C2.44744 41.4151 -1.46443 62.1982 0.45369 82.72C0.46744 82.8209 0.515565 82.9057 0.598065 82.9744C8.90285 89.1222 18.1896 93.8179 28.0637 96.8619C28.1334 96.8839 28.2083 96.8831 28.2776 96.8596C28.3468 96.8361 28.4068 96.7912 28.4487 96.7313C30.5708 93.8438 32.4454 90.7982 34.0724 87.5944C34.1063 87.5284 34.1178 87.4533 34.1054 87.3802C34.0931 87.3071 34.0574 87.24 34.0037 87.1888L33.8799 87.1132C30.9193 85.9716 28.0508 84.6041 25.2999 83.0226C25.2232 82.979 25.166 82.9076 25.1404 82.8232C25.1148 82.7387 25.1227 82.6476 25.1624 82.5688L25.2656 82.4382C25.8477 82.0028 26.416 81.5559 26.9706 81.0975C27.0192 81.0585 27.0774 81.0334 27.1392 81.0249C27.201 81.0164 27.2639 81.0249 27.3212 81.0494C45.3268 89.2719 64.8174 89.2719 82.6031 81.0494C82.6621 81.0221 82.7277 81.0122 82.7922 81.0207C82.8567 81.0292 82.9175 81.0559 82.9674 81.0975C83.522 81.5559 84.0904 82.0028 84.6724 82.4382C84.7208 82.4713 84.7599 82.5162 84.7861 82.5687C84.8122 82.6212 84.8245 82.6795 84.8217 82.738C84.8189 82.7966 84.8013 82.8535 84.7703 82.9033C84.7394 82.9531 84.6962 82.9941 84.645 83.0226C81.9059 84.6291 79.0329 85.9955 76.0581 87.1063C76.0107 87.1235 75.9676 87.1508 75.932 87.1865C75.8963 87.2221 75.869 87.2652 75.8518 87.3126C75.8351 87.3583 75.8283 87.4071 75.8318 87.4557C75.8354 87.5043 75.8492 87.5516 75.8724 87.5944C77.5224 90.7913 79.4131 93.8438 81.4893 96.7313C81.5313 96.7912 81.5912 96.8361 81.6604 96.8596C81.7297 96.8831 81.8046 96.8839 81.8743 96.8619C91.7679 93.8346 101.071 89.1378 109.381 82.9744C109.422 82.9453 109.457 82.9073 109.482 82.8634C109.507 82.8194 109.522 82.7705 109.526 82.72C111.822 58.9944 105.682 38.3832 93.2593 20.1163C93.2485 20.0851 93.2304 20.057 93.2065 20.0342C93.1825 20.0115 93.1535 19.9949 93.1218 19.9857ZM36.7606 70.2213C31.3362 70.2213 26.8743 65.2438 26.8743 59.1388C26.8743 53.0338 31.2537 48.0494 36.7606 48.0494C42.3087 48.0494 46.7293 53.0682 46.6468 59.1388C46.6468 65.2438 42.2674 70.2213 36.7606 70.2213ZM73.3081 70.2213C67.8906 70.2213 63.4218 65.2438 63.4218 59.1388C63.4218 53.0338 67.8012 48.0494 73.3081 48.0494C78.8562 48.0494 83.2837 53.0682 83.1943 59.1388C83.1943 65.2438 78.8562 70.2213 73.3081 70.2213Z" fill="white"/>
</g>
<defs>
<clipPath id="clip0_18_209">
<rect width="110" height="110" fill="white"/>
</clipPath>
</defs>
</svg>
