<svg width="110" height="110" viewBox="0 0 110 110" fill="none" xmlns="http://www.w3.org/2000/svg">
<path d="M0 27.5C0 23.8533 1.44866 20.3559 4.02728 17.7773C6.60591 15.1987 10.1033 13.75 13.75 13.75H96.25C99.8967 13.75 103.394 15.1987 105.973 17.7773C108.551 20.3559 110 23.8533 110 27.5V82.5C110 86.1467 108.551 89.6441 105.973 92.2227C103.394 94.8013 99.8967 96.25 96.25 96.25H13.75C10.1033 96.25 6.60591 94.8013 4.02728 92.2227C1.44866 89.6441 0 86.1467 0 82.5V27.5ZM13.75 20.625C11.9266 20.625 10.178 21.3493 8.88864 22.6386C7.59933 23.928 6.875 25.6766 6.875 27.5V28.9919L55 57.8669L103.125 28.9919V27.5C103.125 25.6766 102.401 23.928 101.111 22.6386C99.822 21.3493 98.0734 20.625 96.25 20.625H13.75ZM103.125 37.0081L70.7575 56.43L103.125 76.3469V37.0081ZM102.891 84.2806L64.1162 60.4175L55 65.8831L45.8837 60.4175L7.10875 84.2738C7.49943 85.7367 8.36218 87.0298 9.56306 87.9522C10.7639 88.8746 12.2358 89.3748 13.75 89.375H96.25C97.7633 89.3752 99.2345 88.876 100.435 87.9549C101.636 87.0339 102.499 85.7423 102.891 84.2806ZM6.875 76.3469L39.2425 56.43L6.875 37.0081V76.3469Z" fill="white"/>
</svg>
