<svg width="110" height="110" viewBox="0 0 110 110" fill="none" xmlns="http://www.w3.org/2000/svg">
<path d="M92.7542 16.7648C82.672 6.65853 69.2451 1.1001 54.976 1.1001C25.5235 1.1001 1.55729 25.0663 1.55729 54.5189C1.55729 63.9273 4.01166 73.1192 8.67979 81.2282L1.1001 108.9L29.4217 101.465C37.2179 105.724 46.0007 107.962 54.952 107.962H54.976C84.4045 107.962 108.9 83.9954 108.9 54.5429C108.9 40.2738 102.836 26.871 92.7542 16.7648ZM54.976 98.9623C46.9873 98.9623 39.167 96.8207 32.3573 92.7782L30.7451 91.8157L13.9495 96.2192L18.4251 79.8326L17.3663 78.1482C12.9148 71.0739 10.5807 62.9167 10.5807 54.5189C10.5807 30.0473 30.5045 10.1235 55.0001 10.1235C66.8629 10.1235 78.0039 14.7435 86.3776 23.1413C94.7514 31.5392 99.9007 42.6801 99.8767 54.5429C99.8767 79.0385 79.4476 98.9623 54.976 98.9623ZM79.3273 65.7079C78.0039 65.0342 71.4348 61.8098 70.2076 61.3767C68.9804 60.9195 68.0901 60.7029 67.1998 62.0504C66.3095 63.3979 63.7589 66.3817 62.9648 67.296C62.1948 68.1864 61.4007 68.3067 60.0773 67.6329C52.2329 63.7107 47.0835 60.6307 41.9101 51.7517C40.5385 49.3935 43.2817 49.562 45.8323 44.4607C46.2654 43.5704 46.0489 42.8004 45.712 42.1267C45.3751 41.4529 42.7042 34.8839 41.5973 32.2129C40.5145 29.6142 39.4076 29.9751 38.5895 29.927C37.8195 29.8789 36.9292 29.8789 36.0389 29.8789C35.1485 29.8789 33.7048 30.2157 32.4776 31.5392C31.2504 32.8867 27.8095 36.111 27.8095 42.6801C27.8095 49.2492 32.5979 55.6017 33.2476 56.492C33.9214 57.3823 42.656 70.8573 56.0589 76.6563C64.5289 80.3139 67.8495 80.6267 72.0845 80.001C74.6592 79.616 79.977 76.7767 81.0839 73.6485C82.1907 70.5204 82.1907 67.8495 81.8539 67.296C81.541 66.6945 80.6507 66.3576 79.3273 65.7079Z" fill="white"/>
</svg>
