<svg width="110" height="110" viewBox="0 0 110 110" fill="none" xmlns="http://www.w3.org/2000/svg">
<g clip-path="url(#clip0_18_230)">
<path d="M55 0C40.0744 0 38.1975 0.06875 32.3331 0.33C26.4688 0.605 22.4744 1.52625 18.975 2.8875C15.3027 4.26474 11.9772 6.43086 9.23313 9.23313C6.43086 11.9772 4.26474 15.3027 2.8875 18.975C1.52625 22.4675 0.598125 26.4687 0.33 32.3125C0.06875 38.1906 0 40.0606 0 55.0069C0 69.9394 0.06875 71.8094 0.33 77.6738C0.605 83.5312 1.52625 87.5256 2.8875 91.025C4.29688 94.6413 6.17375 97.7075 9.23313 100.767C12.2856 103.826 15.3519 105.71 18.9681 107.113C22.4744 108.474 26.4619 109.402 32.3194 109.67C38.1906 109.931 40.0606 110 55 110C69.9394 110 71.8025 109.931 77.6738 109.67C83.5244 109.395 87.5325 108.474 91.0319 107.113C94.7017 105.734 98.0248 103.568 100.767 100.767C103.826 97.7075 105.703 94.6413 107.113 91.025C108.467 87.5256 109.395 83.5312 109.67 77.6738C109.931 71.8094 110 69.9394 110 55C110 40.0606 109.931 38.1906 109.67 32.3194C109.395 26.4688 108.467 22.4675 107.113 18.975C105.735 15.3027 103.569 11.9772 100.767 9.23313C98.0228 6.43086 94.6973 4.26474 91.025 2.8875C87.5187 1.52625 83.5175 0.598125 77.6669 0.33C71.7956 0.06875 69.9325 0 54.9863 0H55ZM50.0706 9.91375H55.0069C69.6919 9.91375 71.4313 9.96187 77.2269 10.23C82.5894 10.4706 85.5044 11.3713 87.4431 12.1206C90.0075 13.1175 91.8431 14.3138 93.7681 16.2388C95.6931 18.1637 96.8825 19.9925 97.8794 22.5638C98.6356 24.4956 99.5294 27.4106 99.77 32.7731C100.038 38.5688 100.093 40.3081 100.093 54.9863C100.093 69.6644 100.038 71.4106 99.77 77.2062C99.5294 82.5687 98.6288 85.4769 97.8794 87.4156C96.9914 89.8006 95.5848 91.9586 93.7612 93.7337C91.8363 95.6588 90.0075 96.8481 87.4363 97.845C85.5113 98.6012 82.5963 99.495 77.2269 99.7425C71.4313 100.004 69.6919 100.066 55.0069 100.066C40.3219 100.066 38.5756 100.004 32.78 99.7425C27.4175 99.495 24.5094 98.6012 22.5706 97.845C20.1839 96.9599 18.0235 95.5556 16.2456 93.7337C14.4188 91.9573 13.0098 89.7968 12.1206 87.4087C11.3713 85.4769 10.4706 82.5619 10.23 77.1994C9.96875 71.4037 9.91375 69.6644 9.91375 54.9725C9.91375 40.2806 9.96875 38.555 10.23 32.7594C10.4775 27.3969 11.3713 24.4819 12.1275 22.5431C13.1244 19.9788 14.3206 18.1431 16.2456 16.2181C18.1706 14.2931 19.9994 13.1038 22.5706 12.1069C24.5094 11.3506 27.4175 10.4569 32.78 10.2094C37.8538 9.97563 39.82 9.90688 50.0706 9.9V9.91375ZM84.3631 19.0438C83.4964 19.0438 82.6382 19.2145 81.8374 19.5461C81.0367 19.8778 80.3091 20.364 79.6962 20.9768C79.0834 21.5897 78.5972 22.3173 78.2655 23.118C77.9338 23.9188 77.7631 24.777 77.7631 25.6437C77.7631 26.5105 77.9338 27.3687 78.2655 28.1695C78.5972 28.9702 79.0834 29.6978 79.6962 30.3107C80.3091 30.9235 81.0367 31.4097 81.8374 31.7414C82.6382 32.073 83.4964 32.2438 84.3631 32.2438C86.1136 32.2438 87.7923 31.5484 89.03 30.3107C90.2678 29.0729 90.9631 27.3942 90.9631 25.6437C90.9631 23.8933 90.2678 22.2146 89.03 20.9768C87.7923 19.7391 86.1136 19.0438 84.3631 19.0438ZM55.0069 26.7575C51.2605 26.699 47.5399 27.3865 44.0617 28.7797C40.5835 30.173 37.4173 32.2442 34.7473 34.8729C32.0773 37.5016 29.9569 40.6351 28.5095 44.0912C27.0622 47.5472 26.3168 51.2566 26.3168 55.0034C26.3168 58.7503 27.0622 62.4597 28.5095 65.9157C29.9569 69.3717 32.0773 72.5053 34.7473 75.134C37.4173 77.7626 40.5835 79.8339 44.0617 81.2271C47.5399 82.6204 51.2605 83.3078 55.0069 83.2494C62.4218 83.1337 69.494 80.1069 74.6967 74.8223C79.8995 69.5378 82.8156 62.4193 82.8156 55.0034C82.8156 47.5876 79.8995 40.4691 74.6967 35.1845C69.494 29.9 62.4218 26.8732 55.0069 26.7575ZM55.0069 36.6644C57.4147 36.6644 59.799 37.1386 62.0236 38.0601C64.2482 38.9815 66.2695 40.3321 67.9721 42.0348C69.6747 43.7374 71.0253 45.7587 71.9468 47.9833C72.8682 50.2078 73.3425 52.5921 73.3425 55C73.3425 57.4079 72.8682 59.7922 71.9468 62.0167C71.0253 64.2413 69.6747 66.2626 67.9721 67.9652C66.2695 69.6679 64.2482 71.0185 62.0236 71.9399C59.799 72.8614 57.4147 73.3356 55.0069 73.3356C50.144 73.3356 45.4802 71.4038 42.0416 67.9652C38.603 64.5266 36.6712 59.8629 36.6712 55C36.6712 50.1371 38.603 45.4734 42.0416 42.0348C45.4802 38.5962 50.144 36.6644 55.0069 36.6644Z" fill="white"/>
</g>
<defs>
<clipPath id="clip0_18_230">
<rect width="110" height="110" fill="white"/>
</clipPath>
</defs>
</svg>
